# xmcd
# Track frame offsets:
# 182
# 37940
# 97415
# 130965
# 179122
# 200990
# 225150
#
# Disc length: 3335 seconds
# Revision: 0
# Processed by: cddbd v1.5.2PL0 Copyright (c) Steve Scherf et al.
# Submitted via: VisiTrax 2.10.3.257 - For more info visit www.synapsa.com
#
DISCID=640d0507
DTITLE=John Coltrane - John Coltrane cd 07 Lover come back to me
DYEAR=1994
DGENRE=Blues
TTITLE0=Double clutching
TTITLE1=Black pearls
TTITLE2=Lover Come Back To Me
TTITLE3=Shifting down
TTITLE4=My shining hour
TTITLE5=Village blues
TTITLE6=Some other blues
EXTD=
EXTT0=
EXTT1=
EXTT2=
EXTT3=
EXTT4=
EXTT5=
EXTT6=
PLAYORDER=
